REM DIRINDEX 1\2,1\3,1\4,1\5
REM DIRNAME folder01,folder02,folder03,folder04,folder05
TITLE ""
FILE "P1Q_t_1521-1530.mp3" MP3
  TRACK 01 AUDIO
    TITLE "3:cjc005_5471"
    INDEX 01 00:00:00
  TRACK 02 AUDIO
    TITLE "0:"
    INDEX 01 00:00:74
  TRACK 03 AUDIO
    TITLE "4:cjc005_5472"
    INDEX 01 00:01:22
  TRACK 04 AUDIO
    TITLE "0:"
    INDEX 01 00:02:43
  TRACK 05 AUDIO
    TITLE "5:cjc005_5473"
    INDEX 01 00:02:69
  TRACK 06 AUDIO
    TITLE "0:"
    INDEX 01 00:07:23
  TRACK 07 AUDIO
    TITLE "3:cjc005_5474"
    INDEX 01 00:07:72
  TRACK 08 AUDIO
    TITLE "0:"
    INDEX 01 00:09:28
  TRACK 09 AUDIO
    TITLE "4:cjc005_5475"
    INDEX 01 00:09:53
  TRACK 10 AUDIO
    TITLE "0:"
    INDEX 01 00:11:03
  TRACK 11 AUDIO
    TITLE "5:cjc005_5476"
    INDEX 01 00:11:29
  TRACK 12 AUDIO
    TITLE "0:"
    INDEX 01 00:15:50
  TRACK 13 AUDIO
    TITLE "3:cjc005_5477"
    INDEX 01 00:16:36
  TRACK 14 AUDIO
    TITLE "0:"
    INDEX 01 00:17:59
  TRACK 15 AUDIO
    TITLE "4:cjc005_5478"
    INDEX 01 00:18:07
  TRACK 16 AUDIO
    TITLE "0:"
    INDEX 01 00:20:00
  TRACK 17 AUDIO
    TITLE "5:cjc005_5479"
    INDEX 01 00:20:28
  TRACK 18 AUDIO
    TITLE "0:"
    INDEX 01 00:24:25
  TRACK 19 AUDIO
    TITLE "3:cjc005_5480"
    INDEX 01 00:25:01
  TRACK 20 AUDIO
    TITLE "0:"
    INDEX 01 00:26:18
  TRACK 21 AUDIO
    TITLE "4:cjc005_5481"
    INDEX 01 00:26:52
  TRACK 22 AUDIO
    TITLE "0:"
    INDEX 01 00:28:21
  TRACK 23 AUDIO
    TITLE "5:cjc005_5482"
    INDEX 01 00:28:43
  TRACK 24 AUDIO
    TITLE "0:"
    INDEX 01 00:32:66
  TRACK 25 AUDIO
    TITLE "3:cjc005_5483"
    INDEX 01 00:33:48
  TRACK 26 AUDIO
    TITLE "0:"
    INDEX 01 00:34:57
  TRACK 27 AUDIO
    TITLE "4:cjc005_5484"
    INDEX 01 00:35:10
  TRACK 28 AUDIO
    TITLE "0:"
    INDEX 01 00:36:48
  TRACK 29 AUDIO
    TITLE "5:cjc005_5485"
    INDEX 01 00:36:74
  TRACK 30 AUDIO
    TITLE "0:"
    INDEX 01 00:41:04
  TRACK 31 AUDIO
    TITLE "3:cjc005_5486"
    INDEX 01 00:41:59
  TRACK 32 AUDIO
    TITLE "0:"
    INDEX 01 00:43:03
  TRACK 33 AUDIO
    TITLE "4:cjc005_5487"
    INDEX 01 00:43:33
  TRACK 34 AUDIO
    TITLE "0:"
    INDEX 01 00:44:71
  TRACK 35 AUDIO
    TITLE "5:cjc005_5488"
    INDEX 01 00:45:18
  TRACK 36 AUDIO
    TITLE "0:"
    INDEX 01 00:49:29
  TRACK 37 AUDIO
    TITLE "3:cjc005_5489"
    INDEX 01 00:50:03
  TRACK 38 AUDIO
    TITLE "0:"
    INDEX 01 00:51:20
  TRACK 39 AUDIO
    TITLE "4:cjc005_5490"
    INDEX 01 00:51:44
  TRACK 40 AUDIO
    TITLE "0:"
    INDEX 01 00:53:13
  TRACK 41 AUDIO
    TITLE "5:cjc005_5491"
    INDEX 01 00:53:35
  TRACK 42 AUDIO
    TITLE "0:"
    INDEX 01 00:58:01
  TRACK 43 AUDIO
    TITLE "3:cjc005_5492"
    INDEX 01 00:58:56
  TRACK 44 AUDIO
    TITLE "0:"
    INDEX 01 01:00:02
  TRACK 45 AUDIO
    TITLE "4:cjc005_5493"
    INDEX 01 01:00:25
  TRACK 46 AUDIO
    TITLE "0:"
    INDEX 01 01:02:12
  TRACK 47 AUDIO
    TITLE "5:cjc005_5494"
    INDEX 01 01:02:36
  TRACK 48 AUDIO
    TITLE "0:"
    INDEX 01 01:08:36
  TRACK 49 AUDIO
    TITLE "3:cjc005_5495"
    INDEX 01 01:09:10
  TRACK 50 AUDIO
    TITLE "0:"
    INDEX 01 01:10:08
  TRACK 51 AUDIO
    TITLE "4:cjc005_5496"
    INDEX 01 01:10:33
  TRACK 52 AUDIO
    TITLE "0:"
    INDEX 01 01:11:41
  TRACK 53 AUDIO
    TITLE "5:cjc005_5497"
    INDEX 01 01:11:68
  TRACK 54 AUDIO
    TITLE "0:"
    INDEX 01 01:16:50
  TRACK 55 AUDIO
    TITLE "3:cjc005_5498"
    INDEX 01 01:17:26
  TRACK 56 AUDIO
    TITLE "0:"
    INDEX 01 01:18:56
  TRACK 57 AUDIO
    TITLE "4:cjc005_5499"
    INDEX 01 01:19:11
  TRACK 58 AUDIO
    TITLE "0:"
    INDEX 01 01:20:40
  TRACK 59 AUDIO
    TITLE "5:cjc005_5500"
    INDEX 01 01:20:69
  TRACK 60 AUDIO
    TITLE "0:"
    INDEX 01 01:24:34
